<svg xmlns="http://www.w3.org/2000/svg" xmlns:xlink="http://www.w3.org/1999/xlink" width="200" zoomAndPan="magnify" viewBox="0 0 150 60" height="80" preserveAspectRatio="xMidYMid meet" version="1.0"><defs><g/></defs><g fill="#f1f0f0" fill-opacity="1"><g transform="translate(26.646097, 54.631167)"><g><path d="M 3.703125 -1.984375 C 3.703125 -1.335938 3.519531 -0.84375 3.15625 -0.5 C 2.800781 -0.164062 2.28125 0 1.59375 0 L 0.484375 0 L 0.484375 -3.875 L 1.703125 -3.875 C 2.335938 -3.875 2.828125 -3.707031 3.171875 -3.375 C 3.523438 -3.039062 3.703125 -2.578125 3.703125 -1.984375 Z M 2.859375 -1.953125 C 2.859375 -2.785156 2.488281 -3.203125 1.75 -3.203125 L 1.3125 -3.203125 L 1.3125 -0.6875 L 1.671875 -0.6875 C 2.460938 -0.6875 2.859375 -1.109375 2.859375 -1.953125 Z M 2.859375 -1.953125 "/></g></g></g><g fill="#f1f0f0" fill-opacity="1"><g transform="translate(32.824468, 54.631167)"><g><path d="M 2.859375 0 L 2.578125 -0.921875 L 1.171875 -0.921875 L 0.890625 0 L 0 0 L 1.375 -3.890625 L 2.375 -3.890625 L 3.75 0 Z M 2.390625 -1.609375 C 2.128906 -2.453125 1.976562 -2.925781 1.9375 -3.03125 C 1.90625 -3.144531 1.882812 -3.234375 1.875 -3.296875 C 1.820312 -3.066406 1.65625 -2.503906 1.375 -1.609375 Z M 2.390625 -1.609375 "/></g></g></g><g fill="#f1f0f0" fill-opacity="1"><g transform="translate(38.729608, 54.631167)"><g><path d="M 3.9375 0 L 2.890625 0 L 1.203125 -2.9375 L 1.171875 -2.9375 C 1.203125 -2.414062 1.21875 -2.046875 1.21875 -1.828125 L 1.21875 0 L 0.484375 0 L 0.484375 -3.875 L 1.53125 -3.875 L 3.21875 -0.96875 L 3.234375 -0.96875 C 3.203125 -1.476562 3.1875 -1.835938 3.1875 -2.046875 L 3.1875 -3.875 L 3.9375 -3.875 Z M 3.9375 0 "/></g></g></g><g fill="#f1f0f0" fill-opacity="1"><g transform="translate(45.303237, 54.631167)"><g><path d="M 0.484375 0 L 0.484375 -3.875 L 1.3125 -3.875 L 1.3125 0 Z M 0.484375 0 "/></g></g></g><g fill="#f1f0f0" fill-opacity="1"><g transform="translate(49.258615, 54.631167)"><g><path d="M 2.71875 0 L 0.484375 0 L 0.484375 -3.875 L 2.71875 -3.875 L 2.71875 -3.203125 L 1.3125 -3.203125 L 1.3125 -2.359375 L 2.625 -2.359375 L 2.625 -1.6875 L 1.3125 -1.6875 L 1.3125 -0.6875 L 2.71875 -0.6875 Z M 2.71875 0 "/></g></g></g><g fill="#f1f0f0" fill-opacity="1"><g transform="translate(54.458126, 54.631167)"><g><path d="M 0.484375 0 L 0.484375 -3.875 L 1.3125 -3.875 L 1.3125 -0.6875 L 2.890625 -0.6875 L 2.890625 0 Z M 0.484375 0 "/></g></g></g><g fill="#f1f0f0" fill-opacity="1"><g transform="translate(59.684165, 54.631167)"><g><path d="M 2.859375 0 L 2.578125 -0.921875 L 1.171875 -0.921875 L 0.890625 0 L 0 0 L 1.375 -3.890625 L 2.375 -3.890625 L 3.75 0 Z M 2.390625 -1.609375 C 2.128906 -2.453125 1.976562 -2.925781 1.9375 -3.03125 C 1.90625 -3.144531 1.882812 -3.234375 1.875 -3.296875 C 1.820312 -3.066406 1.65625 -2.503906 1.375 -1.609375 Z M 2.390625 -1.609375 "/></g></g></g><g fill="#f1f0f0" fill-opacity="1"><g transform="translate(65.589305, 54.631167)"><g/></g></g><g fill="#f1f0f0" fill-opacity="1"><g transform="translate(69.157384, 54.631167)"><g><path d="M 2.78125 -1.078125 C 2.78125 -0.722656 2.648438 -0.445312 2.390625 -0.25 C 2.140625 -0.0507812 1.789062 0.046875 1.34375 0.046875 C 0.9375 0.046875 0.570312 -0.03125 0.25 -0.1875 L 0.25 -0.9375 C 0.507812 -0.820312 0.726562 -0.738281 0.90625 -0.6875 C 1.09375 -0.644531 1.257812 -0.625 1.40625 -0.625 C 1.59375 -0.625 1.734375 -0.65625 1.828125 -0.71875 C 1.921875 -0.789062 1.96875 -0.894531 1.96875 -1.03125 C 1.96875 -1.113281 1.945312 -1.179688 1.90625 -1.234375 C 1.863281 -1.296875 1.800781 -1.351562 1.71875 -1.40625 C 1.632812 -1.46875 1.46875 -1.554688 1.21875 -1.671875 C 0.976562 -1.785156 0.796875 -1.894531 0.671875 -2 C 0.554688 -2.101562 0.460938 -2.222656 0.390625 -2.359375 C 0.328125 -2.492188 0.296875 -2.648438 0.296875 -2.828125 C 0.296875 -3.171875 0.410156 -3.441406 0.640625 -3.640625 C 0.878906 -3.835938 1.203125 -3.9375 1.609375 -3.9375 C 1.804688 -3.9375 2 -3.910156 2.1875 -3.859375 C 2.375 -3.816406 2.566406 -3.75 2.765625 -3.65625 L 2.5 -3.03125 C 2.289062 -3.113281 2.117188 -3.171875 1.984375 -3.203125 C 1.847656 -3.234375 1.710938 -3.25 1.578125 -3.25 C 1.421875 -3.25 1.300781 -3.210938 1.21875 -3.140625 C 1.132812 -3.066406 1.09375 -2.972656 1.09375 -2.859375 C 1.09375 -2.785156 1.109375 -2.722656 1.140625 -2.671875 C 1.179688 -2.617188 1.238281 -2.566406 1.3125 -2.515625 C 1.382812 -2.460938 1.554688 -2.367188 1.828125 -2.234375 C 2.191406 -2.066406 2.441406 -1.894531 2.578125 -1.71875 C 2.710938 -1.539062 2.78125 -1.328125 2.78125 -1.078125 Z M 2.78125 -1.078125 "/></g></g></g><g fill="#f1f0f0" fill-opacity="1"><g transform="translate(74.306493, 54.631167)"><g><path d="M 3.640625 -3.875 L 3.640625 -1.375 C 3.640625 -1.082031 3.578125 -0.828125 3.453125 -0.609375 C 3.328125 -0.398438 3.140625 -0.238281 2.890625 -0.125 C 2.648438 -0.0078125 2.367188 0.046875 2.046875 0.046875 C 1.546875 0.046875 1.15625 -0.078125 0.875 -0.328125 C 0.601562 -0.585938 0.46875 -0.9375 0.46875 -1.375 L 0.46875 -3.875 L 1.28125 -3.875 L 1.28125 -1.5 C 1.28125 -1.207031 1.335938 -0.988281 1.453125 -0.84375 C 1.578125 -0.707031 1.78125 -0.640625 2.0625 -0.640625 C 2.332031 -0.640625 2.523438 -0.707031 2.640625 -0.84375 C 2.765625 -0.988281 2.828125 -1.210938 2.828125 -1.515625 L 2.828125 -3.875 Z M 3.640625 -3.875 "/></g></g></g><g fill="#f1f0f0" fill-opacity="1"><g transform="translate(80.569752, 54.631167)"><g><path d="M 1.3125 -2.15625 L 1.578125 -2.15625 C 1.835938 -2.15625 2.03125 -2.195312 2.15625 -2.28125 C 2.28125 -2.375 2.34375 -2.515625 2.34375 -2.703125 C 2.34375 -2.878906 2.273438 -3.003906 2.140625 -3.078125 C 2.015625 -3.160156 1.820312 -3.203125 1.5625 -3.203125 L 1.3125 -3.203125 Z M 1.3125 -1.484375 L 1.3125 0 L 0.484375 0 L 0.484375 -3.875 L 1.625 -3.875 C 2.144531 -3.875 2.53125 -3.78125 2.78125 -3.59375 C 3.039062 -3.40625 3.171875 -3.113281 3.171875 -2.71875 C 3.171875 -2.488281 3.109375 -2.285156 2.984375 -2.109375 C 2.859375 -1.929688 2.679688 -1.789062 2.453125 -1.6875 C 3.035156 -0.8125 3.414062 -0.25 3.59375 0 L 2.671875 0 L 1.75 -1.484375 Z M 1.3125 -1.484375 "/></g></g></g><g fill="#f1f0f0" fill-opacity="1"><g transform="translate(86.313071, 54.631167)"><g><path d="M 2.140625 -3.25 C 1.828125 -3.25 1.582031 -3.128906 1.40625 -2.890625 C 1.238281 -2.660156 1.15625 -2.34375 1.15625 -1.9375 C 1.15625 -1.0625 1.484375 -0.625 2.140625 -0.625 C 2.410156 -0.625 2.738281 -0.695312 3.125 -0.84375 L 3.125 -0.140625 C 2.8125 -0.015625 2.457031 0.046875 2.0625 0.046875 C 1.5 0.046875 1.066406 -0.117188 0.765625 -0.453125 C 0.460938 -0.796875 0.3125 -1.289062 0.3125 -1.9375 C 0.3125 -2.34375 0.382812 -2.695312 0.53125 -3 C 0.675781 -3.300781 0.882812 -3.53125 1.15625 -3.6875 C 1.4375 -3.851562 1.765625 -3.9375 2.140625 -3.9375 C 2.515625 -3.9375 2.894531 -3.84375 3.28125 -3.65625 L 3.015625 -3 C 2.867188 -3.0625 2.71875 -3.117188 2.5625 -3.171875 C 2.414062 -3.222656 2.273438 -3.25 2.140625 -3.25 Z M 2.140625 -3.25 "/></g></g></g><g fill="#f1f0f0" fill-opacity="1"><g transform="translate(91.931718, 54.631167)"><g><path d="M 3.671875 0 L 2.84375 0 L 2.84375 -1.671875 L 1.3125 -1.671875 L 1.3125 0 L 0.484375 0 L 0.484375 -3.875 L 1.3125 -3.875 L 1.3125 -2.359375 L 2.84375 -2.359375 L 2.84375 -3.875 L 3.671875 -3.875 Z M 3.671875 0 "/></g></g></g><g fill="#f1f0f0" fill-opacity="1"><g transform="translate(98.245383, 54.631167)"><g><path d="M 0.484375 0 L 0.484375 -3.875 L 1.3125 -3.875 L 1.3125 0 Z M 0.484375 0 "/></g></g></g><g fill="#f1f0f0" fill-opacity="1"><g transform="translate(102.200764, 54.631167)"><g><path d="M 2.140625 -3.25 C 1.828125 -3.25 1.582031 -3.128906 1.40625 -2.890625 C 1.238281 -2.660156 1.15625 -2.34375 1.15625 -1.9375 C 1.15625 -1.0625 1.484375 -0.625 2.140625 -0.625 C 2.410156 -0.625 2.738281 -0.695312 3.125 -0.84375 L 3.125 -0.140625 C 2.8125 -0.015625 2.457031 0.046875 2.0625 0.046875 C 1.5 0.046875 1.066406 -0.117188 0.765625 -0.453125 C 0.460938 -0.796875 0.3125 -1.289062 0.3125 -1.9375 C 0.3125 -2.34375 0.382812 -2.695312 0.53125 -3 C 0.675781 -3.300781 0.882812 -3.53125 1.15625 -3.6875 C 1.4375 -3.851562 1.765625 -3.9375 2.140625 -3.9375 C 2.515625 -3.9375 2.894531 -3.84375 3.28125 -3.65625 L 3.015625 -3 C 2.867188 -3.0625 2.71875 -3.117188 2.5625 -3.171875 C 2.414062 -3.222656 2.273438 -3.25 2.140625 -3.25 Z M 2.140625 -3.25 "/></g></g></g><g fill="#f1f0f0" fill-opacity="1"><g transform="translate(107.819412, 54.631167)"><g><path d="M 2.71875 0 L 0.484375 0 L 0.484375 -3.875 L 2.71875 -3.875 L 2.71875 -3.203125 L 1.3125 -3.203125 L 1.3125 -2.359375 L 2.625 -2.359375 L 2.625 -1.6875 L 1.3125 -1.6875 L 1.3125 -0.6875 L 2.71875 -0.6875 Z M 2.71875 0 "/></g></g></g><g fill="#f1f0f0" fill-opacity="1"><g transform="translate(113.018927, 54.631167)"><g><path d="M 2.859375 0 L 2.578125 -0.921875 L 1.171875 -0.921875 L 0.890625 0 L 0 0 L 1.375 -3.890625 L 2.375 -3.890625 L 3.75 0 Z M 2.390625 -1.609375 C 2.128906 -2.453125 1.976562 -2.925781 1.9375 -3.03125 C 1.90625 -3.144531 1.882812 -3.234375 1.875 -3.296875 C 1.820312 -3.066406 1.65625 -2.503906 1.375 -1.609375 Z M 2.390625 -1.609375 "/></g></g></g><g fill="#f1f0f0" fill-opacity="1"><g transform="translate(118.92407, 54.631167)"><g><path d="M 3.9375 0 L 2.890625 0 L 1.203125 -2.9375 L 1.171875 -2.9375 C 1.203125 -2.414062 1.21875 -2.046875 1.21875 -1.828125 L 1.21875 0 L 0.484375 0 L 0.484375 -3.875 L 1.53125 -3.875 L 3.21875 -0.96875 L 3.234375 -0.96875 C 3.203125 -1.476562 3.1875 -1.835938 3.1875 -2.046875 L 3.1875 -3.875 L 3.9375 -3.875 Z M 3.9375 0 "/></g></g></g><g fill="#f1f0f0" fill-opacity="1"><g transform="translate(70.326165, 41.326594)"><g><path d="M 9.941406 -11.484375 C 6.878906 -12.183594 3.992188 -13.203125 3.992188 -16.585938 C 3.992188 -18.683594 5.042969 -20.316406 7.8125 -20.316406 C 11.105469 -20.316406 14.019531 -18.015625 13.582031 -14.109375 L 16.121094 -18.160156 C 14.574219 -19.648438 12.417969 -20.8125 9.125 -20.8125 C 4.578125 -20.8125 1.777344 -18.597656 1.777344 -15.273438 C 1.777344 -12.972656 3.089844 -10.289062 8.570312 -8.976562 C 12.039062 -8.160156 14.3125 -7.347656 14.3125 -4.3125 C 14.3125 -2.304688 13.351562 -0.144531 10.027344 -0.144531 C 6.5 -0.144531 3.207031 -2.417969 3.671875 -6.324219 L 1.164062 -2.332031 C 2.738281 -0.816406 5.335938 0.40625 8.714844 0.40625 C 13.847656 0.40625 16.46875 -2.417969 16.46875 -5.625 C 16.46875 -7.636719 15.480469 -10.203125 9.941406 -11.484375 Z M 9.941406 -11.484375 "/></g></g></g><g fill="#f1f0f0" fill-opacity="1"><g transform="translate(60.547413, 32.910317)"><g><path d="M 9.445312 -20.40625 L 0.4375 -20.40625 L 0.4375 -20.257812 C 1.632812 -20.113281 2.652344 -19.792969 2.652344 -18.742188 L 2.652344 -2.246094 C 2.652344 -1.195312 1.632812 -0.582031 0.4375 -0.144531 L 0.4375 0 L 8.863281 0 C 15.1875 0 20.347656 -3.820312 20.347656 -10.726562 C 20.347656 -16.847656 16.351562 -20.40625 9.445312 -20.40625 Z M 9.355469 -0.464844 C 7.636719 -0.464844 6.382812 -0.84375 5.335938 -1.398438 L 5.335938 -19.9375 L 8.277344 -19.9375 C 14.835938 -19.9375 17.433594 -15.363281 17.433594 -9.210938 C 17.433594 -2.449219 14.253906 -0.464844 9.355469 -0.464844 Z M 9.355469 -0.464844 "/></g></g></g></svg>