<svg id="Capa_1" enable-background="new 0 0 512 512" height="512" viewBox="0 0 512 512" width="512" xmlns="http://www.w3.org/2000/svg" xmlns:xlink="http://www.w3.org/1999/xlink"><linearGradient id="SVGID_1_" gradientUnits="userSpaceOnUse" x1="256" x2="256" y1="512" y2="0"><stop offset="0" stop-color="#ffbef9"/><stop offset="1" stop-color="#fff1ff"/></linearGradient><linearGradient id="SVGID_2_" gradientUnits="userSpaceOnUse" x1="256" x2="256" y1="353.5" y2="158.5"><stop offset="0" stop-color="#ff81ff"/><stop offset="1" stop-color="#a93aff"/></linearGradient><g><g><circle cx="256" cy="256" fill="url(#SVGID_1_)" r="256"/></g><g><g><path d="m260.814 245.717 134.67-87.217h-46.982l-32.927 32.858c-3.47 3.462-9.09 3.462-12.56 0s-3.47-9.072 0-12.534l20.367-20.324h-28.174l-32.927 32.858c-3.469 3.462-9.09 3.462-12.56 0s-3.47-9.072 0-12.534l20.367-20.324h-28.174l-32.927 32.858c-3.469 3.462-9.09 3.462-12.56 0s-3.47-9.072 0-12.534l20.367-20.324h-100.279l134.662 87.217c2.88 1.852 6.775 1.852 9.637 0zm146.186-46.569v-26.976l-136.514 88.416c-4.311 2.796-9.316 4.276-14.486 4.276s-10.175-1.48-14.495-4.276l-136.505-88.415v80.157l20.367-20.324c3.47-3.462 9.091-3.462 12.56 0s3.47 9.071 0 12.534l-32.927 32.857v28.114l20.367-20.324c3.47-3.462 9.091-3.462 12.56 0s3.47 9.071 0 12.534l-32.59 32.521c.924 7.268 4.74 13.59 10.328 17.809l27.467-27.409c3.47-3.462 9.091-3.462 12.56 0s3.47 9.071 0 12.534l-20.367 20.324h28.174l32.927-32.858c3.47-3.462 9.091-3.462 12.56 0 3.47 3.462 3.47 9.071 0 12.534l-20.367 20.324h28.174l32.927-32.858c3.469-3.462 9.091-3.462 12.56 0 3.47 3.462 3.47 9.071 0 12.534l-20.367 20.324h28.174l32.927-32.858c3.469-3.462 9.09-3.462 12.56 0s3.47 9.071 0 12.534l-20.367 20.324h28.174l32.927-32.858c3.47-3.462 9.091-3.462 12.56 0s3.469 9.071 0 12.534l-20.367 20.324h31.852c14.694 0 26.647-11.928 26.647-26.591v-49.512l-20.367 20.324c-3.469 3.462-9.091 3.462-12.56 0s-3.47-9.071 0-12.534l32.927-32.857v-28.115l-20.367 20.324c-3.469 3.462-9.091 3.462-12.56 0s-3.47-9.071 0-12.534z" fill="url(#SVGID_2_)"/></g></g></g></svg>