<svg height="512" viewBox="0 0 512 512" width="512" xmlns="http://www.w3.org/2000/svg"><g id="Layer_2" data-name="Layer 2"><g id="Layer_1-2" data-name="Layer 1"><g id="js"><circle cx="256" cy="256" fill="#e84281" r="256"/><g fill="#f9f9f9"><path d="m392.35 159.26-94.46-92.93c-2.22-2.24-6.09-2.3-6.09.85v81.82a21 21 0 0 0 20.95 21h82.64c3.15-.07-.83-8.51-3.04-10.74zm-9.49 6.1h-70.11a16.38 16.38 0 0 1 -16.38-16.36v-70.73c0-3.15 2.29-5.08 6-2.49l83 83.55a3.54 3.54 0 0 1 -2.51 6.03z"/><path d="m394.05 347.41v53.51c0 25.51-21.14 46.2-47.22 46.2h-181.66c-26.08 0-47.22-20.69-47.22-46.2v-53.51h-4v53.51c0 27.61 23 50.08 51.19 50.08h181.69c28.22 0 51.19-22.47 51.19-50.08v-53.51z"/><path d="m118 220.2v-108.73c0-25.72 21.14-46.56 47.22-46.56h116.49a23 23 0 0 1 16 6.48l89.49 87a22.38 22.38 0 0 1 6.81 16v45.81h4v-45.81a26.41 26.41 0 0 0 -8-18.83l-89.48-86.95a26.85 26.85 0 0 0 -18.82-7.61h-116.54c-28.17 0-51.17 22.64-51.17 50.47v108.73z"/><path d="m407.67 217.85h-303.34c-23.89 0-43.33 17.77-43.33 39.61v52.71c0 21.84 19.44 39.61 43.33 39.61h303.34c23.89 0 43.33-17.77 43.33-39.61v-52.71c0-21.84-19.44-39.61-43.33-39.61zm38.33 92.32c0 19.35-17.16 35-38.33 35h-303.34c-21.17 0-38.33-15.69-38.33-35v-52.71c0-19.35 17.16-35 38.33-35h303.34c21.17 0 38.33 15.69 38.33 35z"/><rect height="5.47" rx="2.74" width="174.51" x="168.74" y="386.7"/><rect height="5.47" rx="2.74" width="174.51" x="168.74" y="405.18"/><path d="m225.36 309.38c.61.06 1.26.1 1.95.1h1.95a7.76 7.76 0 0 0 4.57-1.34c1.26-.89 1.9-2.73 1.9-5.54v-54.82h11.27v54a25.3 25.3 0 0 1 -1.34 8.93 13.61 13.61 0 0 1 -3.59 5.49 12.87 12.87 0 0 1 -5.18 2.82 22.42 22.42 0 0 1 -6.11.83h-2.78a18.58 18.58 0 0 1 -2.67-.21z"/><path d="m253.28 265.13q0-8.72 4.16-13.39t12.47-4.68q8.31 0 12.47 4.68t4.16 13.39v2.26h-10.68v-3c0-2.6-.49-4.43-1.49-5.49a6.22 6.22 0 0 0 -8.31 0q-1.49 1.59-1.49 5.49a12.76 12.76 0 0 0 1.64 6.52 27.62 27.62 0 0 0 4.11 5.34c1.64 1.68 3.4 3.35 5.29 5a50.84 50.84 0 0 1 5.28 5.49 28.06 28.06 0 0 1 4.11 6.78 22.45 22.45 0 0 1 1.64 8.93q0 8.73-4.26 13.39t-12.57 4.67q-8.32 0-12.58-4.67t-4.23-13.34v-4.42h10.68v5.14q0 3.9 1.59 5.44a6.66 6.66 0 0 0 8.52 0q1.59-1.55 1.59-5.44a12.76 12.76 0 0 0 -1.64-6.52 27.62 27.62 0 0 0 -4.11-5.34c-1.64-1.68-3.4-3.35-5.29-5a50.84 50.84 0 0 1 -5.28-5.49 28.19 28.19 0 0 1 -4.11-6.78 22.45 22.45 0 0 1 -1.67-8.96z"/></g></g></g></g></svg>