<svg id="Capa_1" enable-background="new 0 0 512.001 512.001" height="512" viewBox="0 0 512.001 512.001" width="512" xmlns="http://www.w3.org/2000/svg" xmlns:xlink="http://www.w3.org/1999/xlink"><linearGradient id="SVGID_1_" gradientUnits="userSpaceOnUse" x1="213.844" x2="213.844" y1="512.001" y2="84.313"><stop offset="0" stop-color="#a93aff"/><stop offset="1" stop-color="#ff81ff"/></linearGradient><linearGradient id="SVGID_2_" gradientUnits="userSpaceOnUse" x1="392" x2="392" y1="240" y2="0"><stop offset="0" stop-color="#ffbef9"/><stop offset="1" stop-color="#fff1ff"/></linearGradient><g id="_Phone_2_"><g><g><path d="m427.464 421.865c-1.333-13.477-8.555-25.503-19.819-33.018l-76.377-50.933c-17.754-11.792-41.646-9.478-56.763 5.64l-20.098 20.083c-11.792-1.699-39.829-8.716-68.584-37.471s-35.771-56.792-37.471-68.584l20.083-20.098c15.103-15.103 17.476-38.979 5.625-56.777l-50.918-76.362c-7.515-11.265-19.541-18.486-33.018-19.819-13.477-1.304-26.675 3.398-36.24 12.964l-31.831 31.816c-15.16 15.162-23.158 35.875-21.928 56.837 2.402 40.811 20.083 122.915 111.445 214.277 91.377 91.362 173.467 109.043 214.277 111.445 20.525 1.283 41.482-6.558 56.821-21.929l31.831-31.831c9.567-9.565 14.298-22.778 12.965-36.24z" fill="url(#SVGID_1_)"/></g></g><g><g><path d="m287 0c-8.291 0-15 6.709-15 15s6.709 15 15 15c107.519 0 195 87.48 195 195 0 8.291 6.709 15 15 15s15-6.709 15-15c-.001-124.072-100.928-225-225-225zm0 60c-8.291 0-15 6.709-15 15s6.709 15 15 15c74.443 0 135 60.557 135 135 0 8.291 6.709 15 15 15s15-6.709 15-15c-.001-90.981-74.019-165-165-165zm0 60c-8.291 0-15 6.709-15 15s6.709 15 15 15c41.353 0 75 33.647 75 75 0 8.291 6.709 15 15 15s15-6.709 15-15c-.001-57.891-47.11-105-105-105zm0 60c-8.291 0-15 6.709-15 15s6.709 15 15 15c8.276 0 15 6.724 15 15 0 8.291 6.709 15 15 15s15-6.709 15-15c0-24.814-20.186-45-45-45z" fill="url(#SVGID_2_)"/></g></g></g></svg>