<svg xmlns="http://www.w3.org/2000/svg" xmlns:xlink="http://www.w3.org/1999/xlink" width="500" zoomAndPan="magnify" viewBox="0 0 375 374.999991" height="500" preserveAspectRatio="xMidYMid meet" version="1.0"><defs><g/></defs><rect x="-37.5" width="450" fill="#ffffff" y="-37.499999" height="449.999989" fill-opacity="1"/><rect x="-37.5" width="450" fill="#000000" y="-37.499999" height="449.999989" fill-opacity="1"/><g fill="#f1f0f0" fill-opacity="1"><g transform="translate(145.769599, 294.970071)"><g><path d="M 68.75 -79.4375 C 47.582031 -84.277344 27.621094 -91.332031 27.621094 -114.71875 C 27.621094 -129.234375 34.878906 -140.527344 54.03125 -140.527344 C 76.816406 -140.527344 96.976562 -124.597656 93.953125 -97.582031 L 111.492188 -125.605469 C 100.808594 -135.890625 85.886719 -143.953125 63.105469 -143.953125 C 31.652344 -143.953125 12.296875 -128.632812 12.296875 -105.648438 C 12.296875 -89.71875 21.371094 -71.171875 59.273438 -62.097656 C 83.265625 -56.453125 98.992188 -50.808594 98.992188 -29.839844 C 98.992188 -15.925781 92.339844 -1.007812 69.355469 -1.007812 C 44.960938 -1.007812 22.179688 -16.734375 25.402344 -43.75 L 8.066406 -16.128906 C 18.953125 -5.644531 36.894531 2.824219 60.28125 2.824219 C 95.769531 2.824219 113.914062 -16.734375 113.914062 -38.910156 C 113.914062 -52.824219 107.058594 -70.566406 68.75 -79.4375 Z M 68.75 -79.4375 "/></g></g></g><g fill="#f1f0f0" fill-opacity="1"><g transform="translate(78.13475, 236.758775)"><g><path d="M 65.324219 -141.132812 L 3.023438 -141.132812 L 3.023438 -140.125 C 11.289062 -139.113281 18.347656 -136.898438 18.347656 -129.640625 L 18.347656 -15.523438 C 18.347656 -8.265625 11.289062 -4.03125 3.023438 -1.007812 L 3.023438 0 L 61.292969 0 C 105.042969 0 140.726562 -26.410156 140.726562 -74.195312 C 140.726562 -116.535156 113.105469 -141.132812 65.324219 -141.132812 Z M 64.71875 -3.226562 C 52.824219 -3.226562 44.152344 -5.847656 36.894531 -9.675781 L 36.894531 -137.90625 L 57.257812 -137.90625 C 102.621094 -137.90625 120.566406 -106.25 120.566406 -63.710938 C 120.566406 -16.9375 98.589844 -3.226562 64.71875 -3.226562 Z M 64.71875 -3.226562 "/></g></g></g></svg>